<?xml version="1.0" encoding="UTF-8" standalone="no"?>
<!-- Created with Inkscape (http://www.inkscape.org/) -->

<svg
   width="1000"
   height="1000"
   viewBox="0 0 264.58333 264.58334"
   version="1.1"
   id="svg5"
   inkscape:version="1.1 (c4e8f9ed74, 2021-05-24)"
   sodipodi:docname="caiwin2.svg"
   xmlns:inkscape="http://www.inkscape.org/namespaces/inkscape"
   xmlns:sodipodi="http://sodipodi.sourceforge.net/DTD/sodipodi-0.dtd"
   xmlns="http://www.w3.org/2000/svg"
   xmlns:svg="http://www.w3.org/2000/svg">
  <sodipodi:namedview
     id="namedview7"
     pagecolor="#ffffff"
     bordercolor="#666666"
     borderopacity="1.0"
     inkscape:pageshadow="2"
     inkscape:pageopacity="0.0"
     inkscape:pagecheckerboard="0"
     inkscape:document-units="mm"
     showgrid="false"
     units="px"
     height="1000px"
     inkscape:zoom="0.815"
     inkscape:cx="514.11043"
     inkscape:cy="522.08589"
     inkscape:window-width="1920"
     inkscape:window-height="1007"
     inkscape:window-x="0"
     inkscape:window-y="0"
     inkscape:window-maximized="1"
     inkscape:current-layer="layer1" />
  <defs
     id="defs2" />
  <g
     inkscape:label="Layer 1"
     inkscape:groupmode="layer"
     id="layer1">
    <path
       id="rect31"
       style="fill:#34bbff;fill-opacity:1;stroke:#000000;stroke-width:0.532506;stroke-miterlimit:4;stroke-dasharray:none"
       d="M 13.323951,53.919043 24.628259,103.09943 73.808642,91.795119 62.504334,42.614727 Z M 64.580225,42.137579 75.884533,91.317969 125.06491,80.013649 113.7606,30.833277 Z M 25.10541,105.17534 36.409813,154.35616 85.590199,143.05186 74.285795,93.871009 Z M 76.361685,93.393859 87.666087,142.57471 136.84647,131.27041 125.54206,82.089549 Z" />
    <path
       id="rect1885"
       style="fill:#ff4a66;stroke:#000000;stroke-width:0.661458"
       d="m 118.78329,10.175199 c 3.03014,-2.8284728 7.23332,3.749934 7.21847,3.799349 0.43758,4.561483 -12.24116,13.683729 -12.24116,13.683729 0,0 0.59024,-13.345631 5.02269,-17.483078 z"
       sodipodi:nodetypes="sccs" />
    <path
       id="rect1885-5"
       style="fill:#ff4a66;stroke:#000000;stroke-width:0.661458"
       d="m 130.04963,16.682568 c 3.95224,-1.249706 4.9164,6.497072 4.88173,6.535291 -1.56742,4.306017 -16.9374,7.086251 -16.9374,7.086251 0,0 6.27438,-11.793494 12.05567,-13.621542 z"
       sodipodi:nodetypes="sccs" />
    <path
       id="rect1885-5-5"
       style="fill:#4a4a4a;fill-opacity:1;stroke:#000000;stroke-width:0.661458"
       d="m 216.35409,149.66526 c -2.41337,-0.8129 -6.43353,0.96878 -6.44477,1.00581 -2.88987,3.5563 2.61763,18.17216 2.61763,18.17216 0,0 6.89769,-11.44018 5.49728,-17.33966 -0.23933,-1.00827 -0.86568,-1.56735 -1.67014,-1.83831 z m -25.5002,5.62155 c -14.80577,-5.31634 -31.01602,3.78349 -37.02389,21.13365 -8.94194,25.82351 -10.82037,75.05436 32.76454,63.70918 12.15693,17.51735 26.44134,16.33335 38.68756,7.63624 -10.81453,-10.21358 -8.11322,-21.80476 -4.4605,-31.21271 4.16255,-8.84961 8.84845,-23.45234 27.20486,-18.84682 3.16993,-13.42377 -3.03096,-37.53785 -37.83695,-23.59735 -5.20893,-10.19115 -12.1049,-16.22584 -19.33562,-18.82219 z" />
    <path
       id="rect1885-3"
       style="fill:#ff4a66;stroke:#000000;stroke-width:0.661458"
       d="m 105.19151,8.7650519 c 1.36365,-3.9143909 8.14741,-0.05139 8.15729,-7.49e-4 2.51213,3.8324651 -4.45735,17.8107411 -4.45735,17.8107411 0,0 -5.69469,-12.084077 -3.69994,-17.8099921 z"
       sodipodi:nodetypes="sccs" />
    <path
       id="rect1885-6"
       style="fill:#ff4a66;stroke:#000000;stroke-width:0.661458"
       d="m 243.15161,146.52955 c 3.03014,-2.82847 7.23332,3.74994 7.21847,3.79935 0.43758,4.56148 -12.24116,13.68373 -12.24116,13.68373 0,0 0.59024,-13.34563 5.02269,-17.48308 z"
       sodipodi:nodetypes="sccs" />
    <path
       id="rect1885-5-2"
       style="fill:#ff4a66;stroke:#000000;stroke-width:0.661458"
       d="m 254.41795,153.03692 c 3.95224,-1.2497 4.9164,6.49707 4.88173,6.53529 -1.56742,4.30602 -16.9374,7.08625 -16.9374,7.08625 0,0 6.27438,-11.79349 12.05567,-13.62154 z"
       sodipodi:nodetypes="sccs" />
    <path
       id="rect1885-3-9"
       style="fill:#ff4a66;stroke:#000000;stroke-width:0.661458"
       d="m 229.55983,145.11941 c 1.36365,-3.9144 8.14741,-0.0514 8.15729,-7.5e-4 2.51213,3.83246 -4.45735,17.81074 -4.45735,17.81074 0,0 -5.69469,-12.08408 -3.69994,-17.80999 z"
       sodipodi:nodetypes="sccs" />
    <text
       xml:space="preserve"
       style="font-style:normal;font-weight:normal;font-size:91.8746px;line-height:1.25;font-family:sans-serif;letter-spacing:0px;word-spacing:0px;fill:#ff4a66;fill-opacity:1;stroke:none;stroke-width:2.29687"
       x="138.04851"
       y="146.16942"
       id="text9809"><tspan
         sodipodi:role="line"
         id="tspan9807"
         style="fill:#ff4a66;fill-opacity:1;stroke-width:2.29687"
         x="138.04851"
         y="146.16942">!</tspan></text>
  </g>
</svg>
