<?xml version="1.0" encoding="UTF-8" standalone="no"?>
<svg
   xmlns:dc="http://purl.org/dc/elements/1.1/"
   xmlns:cc="http://creativecommons.org/ns#"
   xmlns:rdf="http://www.w3.org/1999/02/22-rdf-syntax-ns#"
   xmlns:svg="http://www.w3.org/2000/svg"
   xmlns="http://www.w3.org/2000/svg"
   xmlns:sodipodi="http://sodipodi.sourceforge.net/DTD/sodipodi-0.dtd"
   xmlns:inkscape="http://www.inkscape.org/namespaces/inkscape"
   width="100"
   height="100"
   viewBox="0 0 26.458333 26.458334"
   version="1.1"
   id="svg8"
   inkscape:version="1.0.2 (e86c870879, 2021-01-15)"
   sodipodi:docname="icon.svg">
  <defs
     id="defs2" />
  <sodipodi:namedview
     id="base"
     pagecolor="#ffffff"
     bordercolor="#666666"
     borderopacity="1.0"
     inkscape:pageopacity="0.0"
     inkscape:pageshadow="2"
     inkscape:zoom="5.71"
     inkscape:cx="46.111267"
     inkscape:cy="43.248954"
     inkscape:document-units="mm"
     inkscape:current-layer="layer1"
     inkscape:document-rotation="0"
     showgrid="false"
     units="px"
     inkscape:window-width="1920"
     inkscape:window-height="1014"
     inkscape:window-x="0"
     inkscape:window-y="1080"
     inkscape:window-maximized="1" />
  <metadata
     id="metadata5">
    <rdf:RDF>
      <cc:Work
         rdf:about="">
        <dc:format>image/svg+xml</dc:format>
        <dc:type
           rdf:resource="http://purl.org/dc/dcmitype/StillImage" />
        <dc:title></dc:title>
      </cc:Work>
    </rdf:RDF>
  </metadata>
  <g
     inkscape:label="Layer 1"
     inkscape:groupmode="layer"
     id="layer1">
    <rect
       style="fill:#000000;fill-opacity:1;stroke-width:0.264583"
       id="rect833"
       width="3.96875"
       height="13.229167"
       x="16.72448"
       y="5.8092487e-06"
       rx="1.3229166"
       ry="1.3229166"
       transform="rotate(45)" />
    <path
       id="path843"
       style="fill:#000000;fill-opacity:1;stroke-width:0.264583"
       d="m 22.552162,3.8433027 a 6.6145835,6.6145835 0 0 0 -9.323008,0.031425 6.6145835,6.6145835 0 0 0 0,9.3544333 6.6145835,6.6145835 0 0 0 9.354433,0 6.6145835,6.6145835 0 0 0 0,-9.3544333 6.6145835,6.6145835 0 0 0 -0.03143,-0.031425 z m -0.904018,0.9668685 a 5.2916663,5.2916663 0 0 1 0,7.4835468 5.2916663,5.2916663 0 0 1 -7.483547,0 5.2916663,5.2916663 0 0 1 0,-7.4835468 5.2916663,5.2916663 0 0 1 7.483547,0 z" />
  </g>
</svg>
